<svg id="svg" version="1.1" xmlns="http://www.w3.org/2000/svg" xmlns:xlink="http://www.w3.org/1999/xlink" width="400" height="475.73333333333335" viewBox="0, 0, 400,475.73333333333335"><g id="svgg"><path id="path0" d="M154.463 0.415 C 153.948 0.627,153.383 0.713,153.208 0.605 C 153.034 0.497,152.668 0.677,152.396 1.004 C 152.124 1.332,151.474 1.600,150.951 1.600 C 150.372 1.600,150.000 1.835,150.000 2.200 C 150.000 2.727,148.417 3.071,147.070 2.837 C 146.889 2.806,146.855 2.965,146.994 3.190 C 147.133 3.416,146.989 3.600,146.673 3.600 C 146.357 3.600,145.874 3.870,145.600 4.200 C 145.326 4.530,144.764 4.800,144.351 4.800 C 143.938 4.800,143.600 5.070,143.600 5.400 C 143.600 5.773,143.222 6.000,142.600 6.000 C 142.050 6.000,141.600 6.148,141.600 6.329 C 141.600 6.510,140.790 7.063,139.800 7.557 C 138.810 8.052,138.000 8.623,138.000 8.828 C 138.000 9.033,137.743 9.200,137.429 9.200 C 137.114 9.200,136.542 9.515,136.157 9.900 C 135.772 10.285,135.354 10.573,135.229 10.540 C 135.103 10.507,135.045 10.642,135.100 10.840 C 135.155 11.038,134.930 11.200,134.600 11.200 C 134.270 11.200,134.000 11.450,134.000 11.757 C 134.000 12.063,133.591 12.416,133.092 12.541 C 132.593 12.666,131.790 13.136,131.309 13.585 C 130.827 14.033,130.246 14.400,130.017 14.400 C 129.788 14.400,129.600 14.670,129.600 15.000 C 129.600 15.330,129.319 15.600,128.976 15.600 C 128.633 15.600,128.444 15.748,128.556 15.929 C 128.783 16.296,127.410 17.600,126.795 17.600 C 126.578 17.600,126.400 17.870,126.400 18.200 C 126.400 18.748,125.609 19.018,124.600 18.814 C 124.380 18.770,124.339 18.872,124.508 19.041 C 124.920 19.453,121.981 22.435,121.473 22.122 C 121.255 21.987,121.187 22.055,121.322 22.273 C 121.603 22.728,118.692 25.724,118.275 25.408 C 118.124 25.294,118.087 25.317,118.193 25.459 C 118.299 25.602,117.804 26.381,117.093 27.190 C 116.382 27.999,115.535 29.053,115.212 29.531 C 114.888 30.009,114.393 30.400,114.112 30.400 C 113.830 30.400,113.600 30.670,113.600 31.000 C 113.600 31.330,113.319 31.600,112.976 31.600 C 112.633 31.600,112.465 31.781,112.602 32.003 C 112.739 32.224,112.569 32.514,112.225 32.646 C 111.881 32.778,111.600 33.131,111.600 33.430 C 111.600 33.775,111.354 33.881,110.931 33.718 C 110.425 33.524,110.323 33.624,110.516 34.124 C 110.681 34.554,110.494 34.936,109.985 35.208 C 109.553 35.439,109.200 35.892,109.200 36.214 C 109.200 36.536,109.020 36.800,108.800 36.800 C 108.580 36.800,108.400 37.070,108.400 37.400 C 108.400 37.730,108.130 38.000,107.800 38.000 C 107.470 38.000,107.200 38.188,107.200 38.418 C 107.200 38.648,106.750 39.286,106.200 39.836 C 105.650 40.386,105.200 41.058,105.200 41.329 C 105.200 41.600,104.693 42.267,104.073 42.811 C 103.453 43.355,102.868 43.980,102.773 44.200 C 102.678 44.420,102.502 44.567,102.383 44.528 C 102.264 44.488,102.140 44.801,102.108 45.223 C 102.076 45.646,101.589 46.419,101.025 46.942 C 100.461 47.464,100.000 48.192,100.000 48.558 C 100.000 48.925,99.730 49.329,99.400 49.455 C 99.070 49.582,98.800 49.942,98.800 50.255 C 98.800 50.569,98.530 50.929,98.200 51.055 C 97.870 51.182,97.600 51.626,97.600 52.043 C 97.600 52.459,97.330 52.800,97.000 52.800 C 96.670 52.800,96.400 53.070,96.400 53.400 C 96.400 53.730,96.220 54.000,96.000 54.000 C 95.780 54.000,95.600 54.450,95.600 55.000 C 95.600 55.622,95.373 56.000,95.000 56.000 C 94.670 56.000,94.400 56.270,94.400 56.600 C 94.400 56.930,94.220 57.200,94.000 57.200 C 93.780 57.200,93.600 57.566,93.600 58.013 C 93.600 58.459,93.330 58.929,93.000 59.055 C 92.670 59.182,92.400 59.542,92.400 59.855 C 92.400 60.169,92.130 60.529,91.800 60.655 C 91.470 60.782,91.187 61.181,91.171 61.543 C 91.155 61.904,90.797 62.740,90.375 63.400 C 89.954 64.060,89.472 64.904,89.305 65.276 C 89.137 65.648,88.831 65.958,88.625 65.965 C 88.419 65.972,88.207 66.269,88.155 66.624 C 88.103 66.979,87.732 67.656,87.330 68.128 C 86.616 68.968,86.617 68.973,87.381 68.393 C 88.157 67.805,88.157 67.809,87.381 68.887 C 86.952 69.486,86.465 69.981,86.300 69.987 C 86.135 69.994,86.000 70.431,86.000 70.957 C 86.000 71.484,85.730 72.018,85.400 72.145 C 85.070 72.271,84.800 72.670,84.800 73.030 C 84.800 73.390,84.350 74.219,83.800 74.873 C 83.250 75.527,82.800 76.303,82.800 76.598 C 82.800 77.344,81.508 79.731,80.892 80.125 C 80.612 80.303,80.488 80.619,80.617 80.828 C 80.746 81.036,80.570 81.488,80.226 81.832 C 79.881 82.176,79.600 82.782,79.600 83.180 C 79.600 83.577,79.330 84.126,79.000 84.400 C 78.670 84.674,78.400 85.304,78.400 85.800 C 78.400 86.296,78.130 86.926,77.800 87.200 C 77.470 87.474,77.200 88.036,77.200 88.449 C 77.200 88.862,77.020 89.200,76.800 89.200 C 76.580 89.200,76.400 89.663,76.400 90.229 C 76.400 90.794,76.130 91.527,75.800 91.857 C 75.470 92.187,75.200 92.782,75.200 93.180 C 75.200 93.577,74.930 94.126,74.600 94.400 C 74.270 94.674,74.000 95.326,74.000 95.849 C 74.000 96.372,73.820 96.800,73.600 96.800 C 73.380 96.800,73.200 97.256,73.200 97.813 C 73.200 98.369,72.968 98.914,72.684 99.023 C 72.401 99.132,72.125 99.801,72.072 100.510 C 72.018 101.220,71.800 101.860,71.587 101.934 C 71.373 102.007,71.086 102.772,70.948 103.634 C 70.810 104.495,70.541 105.200,70.349 105.200 C 70.157 105.200,70.000 105.740,70.000 106.400 C 70.000 107.101,69.807 107.558,69.536 107.500 C 69.265 107.442,69.000 108.066,68.900 109.000 C 68.806 109.880,68.539 110.829,68.308 111.109 C 68.077 111.388,67.815 112.288,67.725 113.109 C 67.636 113.929,67.391 114.660,67.181 114.733 C 66.972 114.807,66.800 115.577,66.800 116.446 C 66.800 117.481,66.593 118.104,66.200 118.255 C 65.780 118.417,65.600 119.072,65.600 120.443 C 65.600 121.744,65.441 122.366,65.125 122.300 C 64.822 122.236,64.599 122.924,64.509 124.200 C 64.432 125.300,64.201 126.560,63.995 127.000 C 63.790 127.440,63.572 128.520,63.511 129.400 C 63.449 130.299,63.206 130.965,62.958 130.919 C 62.672 130.867,62.487 131.924,62.434 133.910 C 62.390 135.600,62.158 137.102,61.919 137.250 C 61.665 137.407,61.408 139.482,61.300 142.259 C 61.198 144.867,60.946 147.207,60.741 147.461 C 60.257 148.058,60.350 160.478,60.837 160.177 C 61.144 159.987,61.445 164.293,61.275 166.461 C 61.247 166.824,61.488 167.341,61.812 167.610 C 62.138 167.881,62.400 168.766,62.400 169.600 C 62.400 170.447,62.662 171.319,63.000 171.600 C 63.330 171.874,63.600 172.597,63.600 173.206 C 63.600 173.842,63.866 174.417,64.225 174.554 C 64.569 174.686,64.746 174.964,64.618 175.171 C 64.337 175.625,65.931 178.800,66.440 178.800 C 66.638 178.800,66.800 179.061,66.800 179.381 C 66.800 180.113,70.651 184.000,71.376 184.000 C 71.672 184.000,72.018 184.270,72.145 184.600 C 72.271 184.930,72.831 185.200,73.387 185.200 C 73.944 185.200,74.400 185.380,74.400 185.600 C 74.400 185.820,75.008 186.000,75.751 186.000 C 76.494 186.000,77.315 186.257,77.575 186.570 C 78.196 187.318,86.832 187.412,86.690 186.670 C 86.635 186.381,87.289 186.151,88.392 186.072 C 89.378 186.002,90.368 185.794,90.592 185.610 C 90.816 185.426,91.594 185.182,92.321 185.069 C 93.047 184.956,93.858 184.684,94.121 184.465 C 94.385 184.246,95.231 183.988,96.001 183.891 C 96.771 183.795,97.355 183.510,97.300 183.258 C 97.213 182.860,98.328 182.588,99.330 182.763 C 99.511 182.794,99.545 182.635,99.406 182.410 C 99.267 182.184,99.411 182.000,99.727 182.000 C 100.043 182.000,100.526 181.730,100.800 181.400 C 101.074 181.070,101.636 180.800,102.049 180.800 C 102.462 180.800,102.800 180.530,102.800 180.200 C 102.800 179.827,103.178 179.600,103.800 179.600 C 104.350 179.600,104.800 179.452,104.800 179.271 C 104.800 179.090,105.610 178.537,106.600 178.043 C 107.590 177.548,108.400 176.977,108.400 176.772 C 108.400 176.567,108.662 176.400,108.982 176.400 C 109.302 176.400,110.014 175.950,110.564 175.400 C 111.114 174.850,111.752 174.400,111.982 174.400 C 112.212 174.400,112.400 174.130,112.400 173.800 C 112.400 173.470,112.662 173.200,112.982 173.200 C 113.302 173.200,114.059 172.705,114.664 172.100 C 115.270 171.495,116.022 171.059,116.337 171.130 C 116.714 171.216,116.826 171.046,116.667 170.630 C 116.497 170.188,116.660 170.000,117.213 170.000 C 117.646 170.000,117.955 169.775,117.900 169.500 C 117.845 169.225,118.025 169.045,118.300 169.100 C 118.575 169.155,118.800 168.930,118.800 168.600 C 118.800 168.270,119.070 168.000,119.400 168.000 C 119.730 168.000,120.000 167.806,120.000 167.569 C 120.000 167.044,122.194 164.800,122.707 164.800 C 122.910 164.800,123.398 164.444,123.791 164.009 C 124.185 163.575,124.691 163.332,124.915 163.471 C 125.140 163.610,125.210 163.540,125.071 163.315 C 124.932 163.091,125.175 162.585,125.609 162.191 C 126.044 161.798,126.400 161.310,126.400 161.107 C 126.400 160.594,128.644 158.400,129.169 158.400 C 129.406 158.400,129.600 158.222,129.600 158.005 C 129.600 157.390,130.904 156.017,131.271 156.244 C 131.452 156.356,131.600 156.167,131.600 155.824 C 131.600 155.481,131.870 155.200,132.200 155.200 C 132.530 155.200,132.800 154.930,132.800 154.600 C 132.800 154.270,132.941 154.000,133.114 154.000 C 133.286 154.000,133.745 153.463,134.133 152.806 C 134.520 152.150,135.030 151.655,135.266 151.706 C 135.501 151.758,135.753 151.440,135.825 151.000 C 135.897 150.560,136.383 149.833,136.903 149.384 C 137.424 148.935,137.968 148.260,138.113 147.884 C 138.257 147.508,138.561 147.200,138.787 147.200 C 139.014 147.200,139.200 146.924,139.200 146.587 C 139.200 146.251,139.470 145.871,139.800 145.745 C 140.130 145.618,140.400 145.264,140.400 144.957 C 140.400 144.651,140.580 144.400,140.800 144.400 C 141.020 144.400,141.200 144.100,141.200 143.733 C 141.200 143.367,141.309 143.176,141.443 143.310 C 141.696 143.563,144.400 139.780,144.400 139.172 C 144.400 138.981,144.701 138.941,145.069 139.082 C 145.568 139.273,145.676 139.175,145.492 138.697 C 145.236 138.028,147.706 134.400,148.418 134.400 C 148.628 134.400,148.800 134.124,148.800 133.786 C 148.800 133.006,149.999 131.152,150.359 131.375 C 150.508 131.467,150.669 131.070,150.717 130.494 C 150.765 129.917,150.940 129.345,151.106 129.222 C 151.271 129.100,151.850 128.339,152.391 127.530 C 152.932 126.722,153.478 126.124,153.604 126.202 C 153.730 126.281,153.863 125.955,153.899 125.478 C 153.935 125.002,154.146 124.551,154.369 124.477 C 154.591 124.403,155.171 123.545,155.657 122.571 C 156.144 121.597,156.690 120.800,156.871 120.800 C 157.052 120.800,157.200 120.372,157.200 119.849 C 157.200 119.326,157.470 118.674,157.800 118.400 C 158.130 118.126,158.400 117.654,158.400 117.351 C 158.400 117.048,158.568 116.800,158.773 116.800 C 158.978 116.800,159.261 116.437,159.402 115.994 C 159.543 115.551,159.786 115.268,159.944 115.365 C 160.101 115.463,160.269 115.070,160.317 114.494 C 160.365 113.917,160.542 113.345,160.711 113.222 C 161.287 112.806,162.568 110.602,162.695 109.809 C 162.766 109.373,162.998 108.842,163.211 108.629 C 163.425 108.415,163.600 107.916,163.600 107.520 C 163.600 107.124,163.735 106.799,163.900 106.797 C 164.302 106.794,165.700 104.401,165.880 103.409 C 165.958 102.973,166.198 102.442,166.411 102.229 C 166.625 102.015,166.800 101.593,166.800 101.291 C 166.800 100.990,167.070 100.473,167.400 100.143 C 167.730 99.813,168.000 99.218,168.000 98.820 C 168.000 98.423,168.270 97.874,168.600 97.600 C 168.930 97.326,169.200 96.663,169.200 96.127 C 169.200 95.580,169.375 95.261,169.600 95.400 C 169.832 95.543,170.000 95.154,170.000 94.473 C 170.000 93.827,170.270 93.074,170.600 92.800 C 170.930 92.526,171.206 92.009,171.213 91.651 C 171.220 91.293,171.490 90.651,171.813 90.224 C 172.136 89.796,172.400 89.121,172.400 88.724 C 172.400 88.326,172.580 88.000,172.800 88.000 C 173.020 88.000,173.200 87.482,173.200 86.849 C 173.200 86.216,173.470 85.474,173.800 85.200 C 174.130 84.926,174.400 84.184,174.400 83.551 C 174.400 82.918,174.578 82.400,174.795 82.400 C 175.013 82.400,175.305 81.683,175.445 80.807 C 175.585 79.931,175.857 79.312,176.050 79.431 C 176.242 79.550,176.400 78.936,176.400 78.066 C 176.400 77.030,176.607 76.406,177.000 76.255 C 177.396 76.103,177.600 75.477,177.600 74.413 C 177.600 73.422,177.774 72.839,178.052 72.900 C 178.311 72.957,178.566 72.319,178.650 71.401 C 178.730 70.521,178.977 69.741,179.198 69.667 C 179.419 69.594,179.600 68.648,179.600 67.567 C 179.600 66.085,179.748 65.600,180.200 65.600 C 180.640 65.600,180.800 65.142,180.800 63.880 C 180.800 62.934,180.990 61.970,181.223 61.737 C 181.456 61.504,181.751 60.298,181.879 59.057 C 182.007 57.816,182.267 56.800,182.456 56.800 C 182.645 56.800,182.800 55.624,182.800 54.187 C 182.800 52.234,182.951 51.517,183.400 51.345 C 183.871 51.164,184.000 50.350,184.000 47.557 C 184.000 44.925,184.130 44.026,184.500 44.100 C 185.284 44.257,185.346 20.942,184.562 20.641 C 184.175 20.492,184.000 19.750,184.000 18.255 C 184.000 16.696,183.831 16.021,183.400 15.855 C 183.004 15.703,182.800 15.077,182.800 14.013 C 182.800 13.126,182.628 12.400,182.418 12.400 C 182.208 12.400,181.918 11.770,181.774 11.000 C 181.629 10.230,181.351 9.600,181.155 9.600 C 180.960 9.600,180.800 9.339,180.800 9.020 C 180.800 8.701,180.575 8.296,180.299 8.120 C 180.024 7.944,179.532 7.260,179.205 6.600 C 178.549 5.274,176.168 2.800,175.548 2.800 C 175.331 2.800,175.265 2.618,175.403 2.395 C 175.542 2.170,175.108 1.882,174.427 1.745 C 173.752 1.610,173.200 1.283,173.200 1.017 C 173.200 0.199,156.301 -0.344,154.463 0.415 M189.800 71.107 C 188.696 71.363,188.413 71.927,188.406 73.887 C 188.402 75.130,188.259 75.521,187.865 75.370 C 187.484 75.223,187.315 75.588,187.275 76.640 C 187.245 77.451,186.945 78.419,186.609 78.790 C 186.273 79.161,186.099 79.566,186.223 79.689 C 186.346 79.813,186.166 80.585,185.823 81.406 C 185.481 82.226,185.200 83.410,185.200 84.036 C 185.200 84.822,185.034 85.111,184.665 84.970 C 184.286 84.824,184.115 85.181,184.077 86.199 C 184.047 86.988,183.748 87.909,183.412 88.246 C 183.075 88.582,182.800 89.204,182.800 89.629 C 182.800 90.053,182.620 90.400,182.400 90.400 C 182.180 90.400,182.000 91.011,182.000 91.757 C 182.000 92.595,181.770 93.203,181.400 93.345 C 181.070 93.471,180.800 94.031,180.800 94.587 C 180.800 95.144,180.620 95.600,180.400 95.600 C 180.180 95.600,179.994 95.915,179.987 96.300 C 179.980 96.685,179.710 97.349,179.387 97.776 C 179.064 98.204,178.800 99.039,178.800 99.634 C 178.800 100.228,178.530 100.818,178.200 100.945 C 177.870 101.071,177.600 101.631,177.600 102.187 C 177.600 102.744,177.401 103.155,177.159 103.100 C 176.916 103.045,176.656 103.522,176.580 104.159 C 176.504 104.796,176.253 105.507,176.021 105.739 C 175.789 105.971,175.600 106.484,175.600 106.880 C 175.600 107.276,175.465 107.601,175.300 107.603 C 174.898 107.606,173.500 109.999,173.320 110.991 C 173.242 111.427,173.002 111.958,172.789 112.171 C 172.575 112.385,172.400 112.869,172.400 113.247 C 172.400 113.624,172.265 113.993,172.100 114.067 C 171.935 114.140,171.361 114.830,170.824 115.600 C 170.080 116.666,170.028 116.857,170.605 116.400 C 171.325 115.830,171.324 115.855,170.581 116.887 C 170.152 117.486,169.665 117.981,169.500 117.987 C 169.335 117.994,169.200 118.450,169.200 119.000 C 169.200 119.622,168.973 120.000,168.600 120.000 C 168.257 120.000,168.000 120.360,168.000 120.842 C 168.000 121.305,167.550 122.219,167.000 122.873 C 166.450 123.527,166.000 124.418,166.000 124.854 C 166.000 125.290,165.818 125.535,165.595 125.397 C 165.370 125.258,165.082 125.692,164.945 126.373 C 164.810 127.048,164.453 127.600,164.150 127.600 C 163.848 127.600,163.628 127.735,163.662 127.900 C 163.777 128.459,162.392 131.200,161.995 131.200 C 161.778 131.200,161.600 131.560,161.600 132.000 C 161.600 132.440,161.449 132.800,161.264 132.800 C 161.080 132.800,160.585 133.518,160.164 134.395 C 159.744 135.273,159.175 135.993,158.900 135.995 C 158.625 135.998,158.400 136.341,158.400 136.757 C 158.400 137.174,158.119 137.622,157.775 137.754 C 157.431 137.886,157.254 138.165,157.383 138.373 C 157.512 138.581,157.374 138.897,157.078 139.075 C 156.782 139.254,156.420 139.726,156.273 140.125 C 156.126 140.524,155.862 140.762,155.686 140.653 C 155.510 140.544,155.339 140.818,155.305 141.261 C 155.272 141.704,154.830 142.468,154.322 142.959 C 153.246 144.000,152.473 145.115,152.142 146.100 C 152.012 146.485,151.647 146.800,151.330 146.800 C 151.012 146.800,150.865 146.981,151.002 147.203 C 151.139 147.424,150.969 147.714,150.625 147.846 C 150.281 147.978,150.000 148.516,150.000 149.043 C 150.000 149.627,149.766 150.000,149.400 150.000 C 149.070 150.000,148.800 150.194,148.800 150.431 C 148.800 150.669,148.080 151.576,147.200 152.447 C 146.320 153.318,145.600 154.294,145.600 154.615 C 145.600 154.937,145.330 155.200,145.000 155.200 C 144.670 155.200,144.400 155.470,144.400 155.800 C 144.400 156.130,144.220 156.400,144.000 156.400 C 143.780 156.400,143.600 156.700,143.600 157.067 C 143.600 157.433,143.487 157.621,143.349 157.483 C 143.211 157.345,142.699 157.810,142.210 158.516 C 141.721 159.222,141.150 159.767,140.941 159.727 C 140.731 159.686,140.520 160.249,140.471 160.978 C 140.352 162.745,140.575 162.788,149.900 162.795 C 154.763 162.798,157.600 162.947,157.600 163.200 C 157.600 163.453,160.541 163.600,165.624 163.600 C 170.245 163.600,173.553 163.752,173.426 163.958 C 173.028 164.603,174.393 164.800,179.245 164.800 C 182.699 164.800,184.079 164.939,184.218 165.300 C 184.351 165.644,185.688 165.835,188.506 165.913 C 190.758 165.975,192.660 166.200,192.733 166.413 C 192.807 166.626,194.270 166.800,195.984 166.800 C 198.268 166.800,199.235 166.961,199.600 167.400 C 199.964 167.838,200.927 168.000,203.169 168.000 C 204.975 168.000,206.432 168.192,206.707 168.467 C 206.963 168.723,208.484 169.009,210.087 169.102 C 211.689 169.195,213.171 169.435,213.380 169.635 C 213.589 169.836,214.692 170.000,215.831 170.000 C 217.184 170.000,218.075 170.208,218.400 170.600 C 218.738 171.007,219.643 171.200,221.216 171.200 C 222.490 171.200,223.593 171.378,223.667 171.595 C 223.740 171.813,224.656 172.077,225.703 172.183 C 226.750 172.289,227.953 172.561,228.377 172.788 C 228.801 173.014,229.879 173.200,230.774 173.200 C 231.781 173.200,232.362 173.373,232.300 173.655 C 232.239 173.931,232.981 174.175,234.189 174.275 C 235.283 174.366,236.278 174.603,236.401 174.802 C 236.524 175.000,237.380 175.283,238.305 175.431 C 239.229 175.579,239.910 175.821,239.819 175.970 C 239.727 176.118,240.315 176.282,241.126 176.332 C 241.937 176.383,242.780 176.644,243.000 176.912 C 243.220 177.181,243.940 177.463,244.600 177.541 C 245.260 177.618,245.890 177.827,246.001 178.004 C 246.111 178.182,246.876 178.453,247.701 178.608 C 248.525 178.762,249.200 179.049,249.200 179.245 C 249.200 179.440,249.740 179.600,250.400 179.600 C 251.060 179.600,251.600 179.777,251.600 179.992 C 251.600 180.208,252.044 180.496,252.587 180.632 C 253.129 180.769,253.534 181.065,253.487 181.292 C 253.439 181.518,253.841 181.743,254.380 181.791 C 254.918 181.839,255.428 182.085,255.513 182.339 C 255.598 182.593,256.102 182.800,256.633 182.800 C 257.226 182.800,257.600 183.032,257.600 183.400 C 257.600 183.730,257.788 184.000,258.017 184.000 C 258.246 184.000,258.827 184.367,259.309 184.815 C 259.790 185.264,260.593 185.734,261.092 185.859 C 261.591 185.984,262.000 186.233,262.000 186.413 C 262.000 186.861,264.375 189.200,264.831 189.200 C 265.034 189.200,265.200 189.560,265.200 190.000 C 265.200 190.440,264.975 190.755,264.700 190.700 C 264.425 190.645,264.245 190.825,264.300 191.100 C 264.373 191.467,263.541 191.600,261.174 191.600 C 259.399 191.600,257.644 191.762,257.273 191.961 C 256.902 192.159,255.074 192.416,253.209 192.532 C 251.341 192.649,249.755 192.936,249.676 193.172 C 249.590 193.430,248.212 193.600,246.195 193.600 C 243.761 193.600,242.695 193.763,242.257 194.200 C 241.813 194.644,240.724 194.800,238.062 194.800 C 236.085 194.800,234.407 194.971,234.333 195.179 C 234.260 195.387,232.587 195.636,230.616 195.731 C 228.471 195.834,226.972 196.084,226.883 196.352 C 226.789 196.632,225.556 196.800,223.595 196.800 C 221.339 196.800,220.289 196.969,219.857 197.400 C 219.413 197.844,218.324 198.000,215.662 198.000 C 213.685 198.000,212.007 198.163,211.933 198.363 C 211.860 198.563,210.184 198.819,208.210 198.934 C 206.190 199.050,204.557 199.329,204.476 199.571 C 204.398 199.807,203.900 200.000,203.371 200.000 C 202.317 200.000,200.720 198.853,201.044 198.329 C 201.156 198.148,201.048 198.000,200.805 198.000 C 200.561 198.000,199.945 197.550,199.435 197.000 C 198.925 196.450,198.381 196.000,198.226 196.000 C 198.070 196.000,197.673 195.730,197.343 195.400 C 197.013 195.070,196.328 194.800,195.820 194.800 C 195.313 194.800,194.690 194.549,194.435 194.242 C 193.931 193.635,188.237 193.412,188.609 194.014 C 188.906 194.495,188.323 194.753,186.691 194.863 C 185.900 194.916,185.341 195.104,185.449 195.280 C 185.558 195.456,185.429 195.600,185.161 195.600 C 184.441 195.600,180.805 199.687,180.802 200.500 C 180.801 200.885,180.644 201.200,180.454 201.200 C 180.264 201.200,179.814 201.971,179.454 202.913 C 178.742 204.780,178.484 214.800,179.149 214.800 C 179.341 214.800,179.613 215.520,179.754 216.400 C 179.894 217.280,180.166 218.000,180.358 218.000 C 180.550 218.000,180.812 218.315,180.942 218.700 C 181.379 220.001,184.730 224.023,185.100 223.690 C 185.428 223.395,186.404 223.670,186.200 224.000 C 186.051 224.241,186.580 224.400,187.527 224.400 C 188.393 224.400,189.294 224.631,189.528 224.913 C 190.143 225.654,192.233 225.710,192.939 225.004 C 193.271 224.672,194.085 224.400,194.748 224.400 C 195.411 224.400,196.055 224.234,196.181 224.031 C 196.306 223.828,196.947 223.543,197.605 223.399 C 198.262 223.255,198.800 222.886,198.800 222.581 C 198.800 222.226,199.042 222.118,199.469 222.282 C 199.977 222.477,200.077 222.377,199.882 221.869 C 199.721 221.450,199.824 221.200,200.159 221.200 C 200.452 221.200,201.130 220.349,201.665 219.310 C 202.395 217.891,202.957 217.327,203.919 217.052 C 204.623 216.850,205.200 216.530,205.200 216.342 C 205.200 216.154,206.627 216.000,208.371 216.000 C 210.657 216.000,211.710 215.832,212.143 215.400 C 212.587 214.956,213.676 214.800,216.338 214.800 C 218.315 214.800,219.993 214.639,220.067 214.442 C 220.140 214.246,221.812 214.000,223.782 213.896 C 225.942 213.783,227.424 213.528,227.515 213.254 C 227.613 212.960,228.946 212.800,231.302 212.800 C 233.910 212.800,235.117 212.637,235.576 212.222 C 236.020 211.820,237.334 211.622,239.898 211.570 C 241.925 211.529,243.486 211.339,243.368 211.148 C 243.249 210.956,243.658 210.788,244.276 210.773 C 244.894 210.758,246.439 210.726,247.709 210.702 C 249.090 210.677,250.195 210.447,250.458 210.130 C 250.757 209.770,251.933 209.600,254.117 209.600 C 256.363 209.600,257.530 209.425,257.976 209.022 C 258.420 208.620,259.734 208.422,262.298 208.370 C 264.325 208.329,265.886 208.139,265.768 207.948 C 265.649 207.756,266.058 207.588,266.676 207.573 C 267.294 207.558,268.839 207.526,270.109 207.502 C 271.513 207.477,272.594 207.248,272.867 206.920 C 273.239 206.471,273.440 206.493,274.057 207.052 C 275.007 207.911,275.204 220.767,274.279 221.534 C 273.993 221.772,273.714 222.713,273.660 223.626 C 273.607 224.539,273.280 225.716,272.935 226.243 C 272.590 226.769,272.429 227.200,272.577 227.200 C 272.724 227.200,272.565 227.600,272.223 228.089 C 271.880 228.578,271.600 229.379,271.600 229.869 C 271.600 230.359,271.373 230.904,271.096 231.080 C 270.819 231.256,270.238 232.075,269.805 232.900 C 269.372 233.725,268.879 234.400,268.709 234.400 C 268.539 234.400,268.400 234.670,268.400 235.000 C 268.400 235.330,268.199 235.555,267.953 235.500 C 267.707 235.445,267.455 235.703,267.393 236.072 C 267.258 236.866,265.931 238.769,265.500 238.787 C 263.939 238.853,265.793 240.400,267.433 240.400 C 267.965 240.400,268.400 240.633,268.400 240.918 C 268.400 241.296,269.395 241.465,272.100 241.544 C 274.135 241.604,275.860 241.821,275.933 242.027 C 276.007 242.232,277.677 242.400,279.646 242.400 C 282.301 242.400,283.279 242.541,283.435 242.946 C 283.586 243.341,284.606 243.513,287.112 243.569 C 289.020 243.611,290.677 243.801,290.794 243.991 C 291.589 245.277,295.794 244.878,295.897 243.506 C 295.934 243.016,296.242 242.412,296.582 242.164 C 296.922 241.915,297.200 241.327,297.200 240.856 C 297.200 240.385,297.380 240.000,297.600 240.000 C 297.820 240.000,298.000 239.370,298.000 238.600 C 298.000 237.622,298.181 237.200,298.600 237.200 C 298.985 237.200,299.205 236.805,299.213 236.100 C 299.220 235.495,299.490 234.651,299.813 234.224 C 300.136 233.796,300.400 232.851,300.400 232.124 C 300.400 231.396,300.580 230.800,300.800 230.800 C 301.020 230.800,301.200 229.832,301.200 228.649 C 301.200 227.225,301.403 226.330,301.800 226.000 C 302.309 225.577,302.400 223.667,302.400 213.380 C 302.400 203.137,302.307 201.164,301.800 200.657 C 301.387 200.245,301.200 199.230,301.200 197.409 C 301.200 195.952,300.971 194.274,300.690 193.680 C 300.410 193.086,300.190 192.240,300.201 191.800 C 300.212 191.360,299.988 190.820,299.702 190.599 C 299.417 190.379,299.157 189.516,299.126 188.682 C 299.085 187.595,298.917 187.223,298.535 187.370 C 298.153 187.516,298.000 187.186,298.000 186.216 C 298.000 185.469,297.719 184.576,297.374 184.232 C 297.030 183.888,296.854 183.436,296.983 183.228 C 297.112 183.019,296.988 182.703,296.708 182.525 C 296.429 182.346,295.842 181.480,295.404 180.600 C 294.966 179.720,294.475 178.902,294.314 178.783 C 294.152 178.663,293.946 178.123,293.855 177.583 C 293.765 177.042,293.490 176.645,293.245 176.700 C 293.000 176.755,292.778 176.530,292.750 176.200 C 292.635 174.817,292.540 174.605,292.082 174.700 C 291.817 174.755,291.600 174.596,291.600 174.346 C 291.600 174.096,291.150 173.475,290.600 172.965 C 290.050 172.455,289.600 171.883,289.600 171.694 C 289.600 171.505,289.066 170.838,288.414 170.214 C 287.762 169.589,287.284 168.970,287.351 168.839 C 287.528 168.495,279.280 160.453,279.019 160.715 C 278.898 160.835,278.800 160.633,278.800 160.267 C 278.800 159.900,278.599 159.600,278.353 159.600 C 278.107 159.600,277.325 159.105,276.616 158.500 C 275.907 157.895,274.938 157.135,274.463 156.812 C 273.988 156.488,273.600 155.993,273.600 155.712 C 273.600 155.430,273.330 155.200,273.000 155.200 C 272.670 155.200,272.400 155.020,272.400 154.800 C 272.400 154.580,272.130 154.400,271.800 154.400 C 271.470 154.400,271.200 154.223,271.200 154.008 C 271.200 153.792,270.750 153.502,270.200 153.364 C 269.650 153.226,269.200 152.863,269.200 152.557 C 269.200 152.250,269.012 152.000,268.782 152.000 C 268.552 152.000,267.914 151.550,267.364 151.000 C 266.814 150.450,266.102 150.000,265.782 150.000 C 265.462 150.000,265.200 149.730,265.200 149.400 C 265.200 149.070,264.955 148.800,264.656 148.800 C 264.357 148.800,263.295 148.080,262.295 147.200 C 261.295 146.320,260.361 145.600,260.220 145.600 C 260.078 145.600,259.545 145.150,259.035 144.600 C 258.525 144.050,257.965 143.600,257.790 143.600 C 257.615 143.600,256.973 143.042,256.364 142.359 C 255.754 141.677,255.063 141.237,254.828 141.383 C 254.593 141.528,254.400 141.367,254.400 141.024 C 254.400 140.681,254.130 140.400,253.800 140.400 C 253.470 140.400,253.200 140.130,253.200 139.800 C 253.200 139.470,253.022 139.200,252.805 139.200 C 252.137 139.200,250.826 137.881,251.082 137.467 C 251.215 137.252,251.122 137.201,250.875 137.354 C 250.628 137.506,250.197 137.264,249.917 136.816 C 249.637 136.367,249.091 136.000,248.704 136.000 C 248.317 136.000,248.000 135.730,248.000 135.400 C 248.000 135.070,247.799 134.800,247.553 134.800 C 247.307 134.800,246.422 134.095,245.586 133.234 C 244.750 132.372,243.961 131.772,243.833 131.900 C 243.705 132.028,243.600 131.833,243.600 131.467 C 243.600 131.100,243.365 130.800,243.078 130.800 C 242.350 130.800,239.918 128.215,240.293 127.840 C 240.462 127.671,240.420 127.570,240.200 127.614 C 239.191 127.818,238.400 127.548,238.400 127.000 C 238.400 126.670,238.204 126.400,237.964 126.400 C 237.433 126.400,234.000 122.923,234.000 122.385 C 234.000 122.173,233.775 122.045,233.500 122.100 C 233.225 122.155,233.045 121.975,233.100 121.700 C 233.155 121.425,233.020 121.200,232.800 121.200 C 232.281 121.200,230.800 119.719,230.800 119.200 C 230.800 118.980,230.575 118.845,230.300 118.900 C 230.025 118.955,229.845 118.775,229.900 118.500 C 229.955 118.225,229.820 118.000,229.600 118.000 C 229.081 118.000,227.600 116.519,227.600 116.000 C 227.600 115.780,227.375 115.645,227.100 115.700 C 226.825 115.755,226.645 115.575,226.700 115.300 C 226.755 115.025,226.631 114.800,226.424 114.800 C 225.915 114.800,222.400 111.308,222.400 110.802 C 222.400 110.581,222.207 110.400,221.971 110.400 C 221.458 110.400,220.400 109.398,220.400 108.912 C 220.400 108.722,219.594 107.775,218.608 106.808 C 217.623 105.841,216.891 104.975,216.983 104.884 C 217.074 104.793,216.395 103.978,215.474 103.074 C 214.553 102.170,213.845 101.288,213.900 101.115 C 213.955 100.942,213.730 100.800,213.400 100.800 C 213.070 100.800,212.800 100.537,212.800 100.215 C 212.800 99.894,212.080 98.918,211.200 98.047 C 210.320 97.176,209.600 96.269,209.600 96.031 C 209.600 95.794,209.330 95.600,209.000 95.600 C 208.670 95.600,208.400 95.330,208.400 95.000 C 208.400 94.670,208.220 94.400,208.000 94.400 C 207.780 94.400,207.600 94.136,207.600 93.814 C 207.600 93.492,207.247 93.039,206.815 92.808 C 206.306 92.536,206.119 92.154,206.284 91.724 C 206.477 91.224,206.375 91.124,205.869 91.318 C 205.379 91.506,205.200 91.358,205.200 90.764 C 205.200 90.318,205.052 90.044,204.871 90.156 C 204.471 90.403,203.200 88.985,203.200 88.291 C 203.200 88.017,202.705 87.257,202.100 86.604 C 201.495 85.950,201.045 85.277,201.100 85.108 C 201.155 84.939,200.930 84.800,200.600 84.800 C 200.070 84.800,199.793 84.047,199.963 83.070 C 199.994 82.889,199.823 82.862,199.583 83.011 C 199.336 83.163,199.051 82.916,198.926 82.440 C 198.806 81.978,198.447 81.600,198.130 81.600 C 197.812 81.600,197.672 81.407,197.817 81.172 C 197.963 80.937,197.523 80.246,196.841 79.636 C 196.158 79.027,195.600 78.335,195.600 78.098 C 195.600 77.861,195.436 77.607,195.237 77.533 C 195.037 77.460,194.812 77.041,194.737 76.603 C 194.661 76.165,194.096 75.338,193.480 74.766 C 192.864 74.194,192.331 73.345,192.296 72.880 C 192.261 72.415,192.158 72.109,192.067 72.200 C 191.975 72.291,191.608 72.041,191.250 71.644 C 190.877 71.230,190.259 71.001,189.800 71.107 M160.735 227.159 C 160.661 227.361,157.900 227.577,154.600 227.637 C 150.565 227.711,148.404 227.910,148.000 228.243 C 147.639 228.541,145.806 228.791,143.400 228.869 C 140.467 228.965,139.427 229.133,139.500 229.500 C 139.572 229.861,138.833 230.000,136.833 230.000 C 135.304 230.000,134.006 230.183,133.930 230.409 C 133.855 230.634,132.944 230.856,131.904 230.902 C 130.816 230.950,129.932 231.201,129.820 231.493 C 129.713 231.772,129.182 232.000,128.641 232.000 C 128.100 232.000,127.387 232.270,127.057 232.600 C 126.727 232.930,126.284 233.200,126.071 233.200 C 125.859 233.200,125.578 233.481,125.446 233.825 C 125.314 234.169,125.024 234.339,124.803 234.202 C 124.537 234.038,124.400 236.823,124.400 242.376 C 124.400 247.725,124.546 250.800,124.800 250.800 C 125.020 250.800,125.200 251.049,125.200 251.353 C 125.200 251.658,125.578 252.006,126.040 252.126 C 126.503 252.247,126.762 252.538,126.617 252.773 C 126.447 253.048,126.918 253.200,127.943 253.200 C 128.818 253.200,129.602 253.407,129.687 253.660 C 129.771 253.914,130.866 254.206,132.120 254.310 C 133.374 254.414,134.400 254.657,134.400 254.850 C 134.400 255.042,135.480 255.200,136.800 255.200 C 138.222 255.200,139.200 255.373,139.200 255.624 C 139.200 255.857,139.368 255.944,139.572 255.817 C 139.777 255.691,140.058 255.770,140.196 255.993 C 140.334 256.217,141.952 256.400,143.791 256.400 C 147.184 256.400,148.545 256.641,148.210 257.184 C 148.108 257.349,150.747 257.519,154.075 257.561 C 157.403 257.604,160.445 257.810,160.836 258.019 C 161.795 258.532,220.606 258.532,221.564 258.019 C 221.956 257.809,224.947 257.611,228.211 257.578 C 234.280 257.517,235.362 257.386,234.974 256.758 C 234.850 256.557,236.350 256.400,238.389 256.400 C 241.252 256.400,242.074 256.272,242.255 255.800 C 242.433 255.338,243.202 255.200,245.609 255.200 C 247.328 255.200,248.793 255.040,248.867 254.845 C 248.940 254.650,249.874 254.405,250.942 254.301 C 252.010 254.197,253.000 253.933,253.142 253.714 C 253.284 253.495,254.075 253.191,254.900 253.040 C 255.725 252.888,256.400 252.592,256.400 252.382 C 256.400 252.172,256.670 252.000,257.000 252.000 C 257.330 252.000,257.600 251.724,257.600 251.387 C 257.600 251.051,257.825 250.689,258.100 250.583 C 259.565 250.021,258.395 233.200,256.891 233.200 C 256.607 233.200,256.286 232.968,256.177 232.684 C 256.068 232.401,255.406 232.125,254.705 232.072 C 254.005 232.018,253.321 231.795,253.186 231.577 C 253.050 231.358,252.008 231.069,250.870 230.934 C 249.731 230.799,248.800 230.534,248.800 230.344 C 248.800 230.155,247.624 230.000,246.187 230.000 C 244.397 230.000,243.511 229.834,243.373 229.474 C 243.229 229.100,242.052 228.918,239.291 228.844 C 237.157 228.787,235.177 228.547,234.892 228.310 C 234.347 227.858,231.880 227.675,225.676 227.628 C 223.364 227.611,222.044 227.452,222.194 227.210 C 222.350 226.957,211.564 226.814,191.653 226.805 C 173.249 226.796,160.816 226.939,160.735 227.159 M292.227 256.844 C 292.546 257.359,291.127 257.600,287.767 257.600 C 285.041 257.600,284.400 257.714,284.400 258.200 C 284.400 258.693,283.698 258.800,280.480 258.800 C 278.324 258.800,276.389 258.968,276.180 259.173 C 275.971 259.379,274.450 259.585,272.800 259.633 C 271.073 259.682,269.465 259.948,269.011 260.259 C 268.516 260.599,267.073 260.800,265.135 260.800 C 263.437 260.800,261.934 260.983,261.796 261.207 C 261.658 261.430,261.377 261.509,261.172 261.383 C 260.968 261.256,260.800 261.343,260.800 261.576 C 260.800 261.841,259.550 262.000,257.480 262.000 C 255.654 262.000,253.989 262.163,253.780 262.363 C 253.571 262.563,251.795 262.789,249.833 262.865 C 247.444 262.957,246.211 263.167,246.100 263.501 C 245.983 263.852,244.819 264.000,242.167 264.000 C 239.367 264.000,238.426 264.128,238.500 264.500 C 238.571 264.854,237.551 265.083,235.000 265.284 C 226.381 265.963,223.928 266.269,223.663 266.698 C 223.493 266.973,222.003 267.185,219.912 267.231 C 217.406 267.287,216.386 267.459,216.235 267.854 C 216.079 268.259,215.101 268.400,212.446 268.400 C 210.477 268.400,208.807 268.568,208.733 268.773 C 208.660 268.979,206.935 269.196,204.900 269.256 C 202.195 269.335,201.200 269.504,201.200 269.882 C 201.200 270.263,200.352 270.400,198.000 270.400 C 193.970 270.400,194.256 270.356,193.880 271.028 C 193.473 271.755,189.344 271.832,189.106 271.117 C 189.005 270.815,187.832 270.584,185.972 270.500 C 182.416 270.339,181.095 270.093,181.374 269.642 C 181.487 269.459,180.024 269.274,178.123 269.232 C 176.221 269.190,174.347 268.986,173.959 268.778 C 173.570 268.570,171.816 268.400,170.060 268.400 C 167.861 268.400,166.815 268.244,166.700 267.900 C 166.588 267.562,165.333 267.354,162.839 267.259 C 160.447 267.168,159.078 266.949,158.959 266.638 C 158.840 266.327,157.547 266.119,155.305 266.049 C 153.397 265.989,151.525 265.774,151.144 265.570 C 150.764 265.367,149.168 265.200,147.598 265.200 C 145.593 265.200,144.564 265.021,144.143 264.600 C 143.704 264.161,142.634 264.000,140.159 264.000 C 137.731 264.000,136.718 263.851,136.573 263.474 C 136.429 263.099,135.253 262.919,132.486 262.847 C 130.349 262.791,128.540 262.578,128.467 262.373 C 128.393 262.168,126.658 262.000,124.609 262.000 C 121.668 262.000,120.837 261.874,120.655 261.400 C 120.476 260.932,119.677 260.800,117.013 260.800 C 114.246 260.800,113.600 260.686,113.600 260.200 C 113.600 259.709,112.911 259.600,109.800 259.600 C 107.533 259.600,106.000 259.439,106.000 259.200 C 106.000 258.964,104.590 258.800,102.571 258.800 C 100.057 258.800,98.983 258.640,98.543 258.200 C 98.099 257.756,97.010 257.600,94.348 257.600 C 92.053 257.600,90.842 257.455,91.000 257.200 C 91.140 256.973,90.804 256.800,90.224 256.800 L 89.200 256.800 89.203 297.100 L 89.206 337.400 90.283 337.900 C 90.875 338.175,92.764 338.400,94.480 338.400 C 96.409 338.400,97.600 338.562,97.600 338.824 C 97.600 339.057,97.768 339.144,97.972 339.017 C 98.177 338.891,98.458 338.970,98.596 339.193 C 98.734 339.417,100.237 339.600,101.935 339.600 C 103.884 339.600,105.313 339.800,105.811 340.144 C 106.296 340.478,107.912 340.719,110.000 340.769 C 111.870 340.814,113.460 341.020,113.533 341.226 C 113.607 341.431,115.362 341.600,117.433 341.600 C 120.515 341.600,121.200 341.709,121.200 342.200 C 121.200 342.691,121.892 342.800,125.024 342.800 C 127.172 342.800,128.750 342.957,128.626 343.158 C 128.287 343.707,129.116 343.876,132.600 343.968 C 134.360 344.014,135.971 344.220,136.180 344.426 C 136.389 344.632,138.067 344.800,139.909 344.800 C 142.352 344.800,143.419 344.962,143.857 345.400 C 144.296 345.839,145.368 346.000,147.852 346.000 C 149.749 346.000,151.150 346.158,151.026 346.358 C 150.659 346.951,151.897 347.200,155.209 347.200 C 156.938 347.200,158.464 347.380,158.600 347.600 C 158.736 347.820,160.442 348.000,162.390 348.000 C 164.802 348.000,165.985 348.154,166.094 348.483 C 166.195 348.785,167.368 349.016,169.228 349.100 C 172.784 349.261,174.105 349.507,173.826 349.958 C 173.713 350.141,175.176 350.326,177.077 350.368 C 178.979 350.410,180.853 350.614,181.241 350.822 C 181.630 351.030,183.322 351.200,185.002 351.200 C 187.227 351.200,188.225 351.368,188.677 351.820 C 189.490 352.633,194.400 352.562,194.400 351.737 C 194.400 351.268,197.805 350.959,201.496 351.092 C 201.768 351.102,201.893 350.950,201.772 350.755 C 201.651 350.560,202.823 350.378,204.376 350.350 C 205.929 350.322,207.560 350.255,208.000 350.200 C 208.440 350.145,208.991 350.078,209.224 350.050 C 209.457 350.023,209.536 349.820,209.400 349.600 C 209.242 349.345,210.446 349.200,212.727 349.200 C 215.417 349.200,216.425 349.051,216.800 348.600 C 217.170 348.155,218.156 348.000,220.625 348.000 C 222.455 348.000,224.064 347.820,224.200 347.600 C 224.336 347.380,225.311 347.200,226.368 347.200 C 229.157 347.200,232.015 346.748,231.767 346.347 C 231.649 346.156,233.161 346.000,235.127 346.000 C 237.817 346.000,238.825 345.851,239.200 345.400 C 239.569 344.955,240.555 344.800,243.016 344.800 C 244.840 344.800,246.393 344.639,246.467 344.443 C 246.540 344.247,248.299 344.011,250.375 343.919 C 252.805 343.811,254.206 343.582,254.308 343.276 C 254.414 342.959,255.580 342.800,257.805 342.800 C 260.239 342.800,261.305 342.637,261.743 342.200 C 262.177 341.766,263.235 341.600,265.571 341.600 C 267.457 341.600,268.800 341.434,268.800 341.200 C 268.800 340.960,270.400 340.800,272.800 340.800 C 276.089 340.800,276.800 340.693,276.800 340.200 C 276.800 339.714,277.446 339.600,280.213 339.600 C 282.877 339.600,283.676 339.468,283.855 339.000 C 284.037 338.526,284.872 338.400,287.843 338.400 C 290.081 338.400,291.600 338.238,291.600 338.000 C 291.600 337.780,292.031 337.600,292.557 337.600 C 293.084 337.600,293.625 337.311,293.761 336.958 C 294.212 335.783,294.022 257.200,293.569 257.200 C 293.340 257.200,293.240 257.059,293.347 256.886 C 293.454 256.713,293.208 256.571,292.800 256.571 C 292.392 256.571,292.134 256.694,292.227 256.844 M55.140 345.200 C 54.910 345.860,54.559 346.400,54.361 346.400 C 54.162 346.400,54.000 346.807,54.000 347.304 C 54.000 347.801,53.657 348.422,53.238 348.684 C 52.818 348.945,52.264 349.800,52.005 350.584 C 51.747 351.367,51.366 351.902,51.158 351.774 C 50.950 351.646,50.806 351.689,50.837 351.870 C 50.999 352.799,50.743 353.600,50.285 353.600 C 50.002 353.600,49.740 354.002,49.703 354.492 C 49.666 354.983,49.387 355.568,49.083 355.792 C 48.779 356.017,48.599 356.404,48.683 356.654 C 48.767 356.903,48.558 357.385,48.218 357.725 C 47.878 358.065,47.600 358.716,47.600 359.171 C 47.600 359.641,47.340 360.000,47.000 360.000 C 46.660 360.000,46.400 360.359,46.400 360.829 C 46.400 361.284,46.175 361.908,45.900 362.215 C 44.623 363.638,44.400 364.021,44.400 364.783 C 44.400 365.232,44.168 365.600,43.885 365.600 C 43.602 365.600,43.340 366.002,43.303 366.492 C 43.266 366.983,43.003 367.569,42.718 367.794 C 42.433 368.019,42.141 368.472,42.070 368.801 C 41.998 369.131,41.773 369.460,41.570 369.533 C 41.366 369.607,41.200 370.102,41.200 370.633 C 41.200 371.226,40.968 371.600,40.600 371.600 C 40.205 371.600,40.000 371.995,40.000 372.757 C 40.000 373.417,39.742 374.013,39.400 374.145 C 39.070 374.271,38.800 374.651,38.800 374.987 C 38.800 375.324,38.620 375.600,38.400 375.600 C 38.180 375.600,38.000 376.035,38.000 376.567 C 38.000 377.098,37.865 377.593,37.700 377.667 C 37.139 377.916,35.600 380.365,35.600 381.007 C 35.600 381.359,35.420 381.536,35.200 381.400 C 34.967 381.256,34.800 381.663,34.800 382.376 C 34.800 383.197,34.603 383.600,34.200 383.600 C 33.827 383.600,33.600 383.978,33.600 384.600 C 33.600 385.150,33.369 385.600,33.087 385.600 C 32.805 385.600,32.534 386.085,32.485 386.678 C 32.436 387.270,32.249 387.855,32.069 387.978 C 31.889 388.100,31.621 388.526,31.474 388.925 C 31.326 389.324,31.024 389.539,30.803 389.402 C 30.581 389.265,30.398 389.478,30.395 389.876 C 30.393 390.274,29.943 391.383,29.395 392.341 C 28.848 393.298,28.400 394.333,28.400 394.641 C 28.400 394.948,28.130 395.200,27.800 395.200 C 27.425 395.200,27.200 395.579,27.200 396.213 C 27.200 396.769,26.968 397.314,26.684 397.423 C 26.401 397.532,26.139 398.019,26.102 398.505 C 26.065 398.991,25.848 399.451,25.618 399.527 C 25.388 399.604,25.200 400.102,25.200 400.633 C 25.200 401.226,24.968 401.600,24.600 401.600 C 24.270 401.600,24.000 401.848,24.000 402.151 C 24.000 402.454,23.730 402.926,23.400 403.200 C 23.070 403.474,22.800 404.036,22.800 404.449 C 22.800 404.862,22.620 405.200,22.400 405.200 C 22.180 405.200,22.000 405.650,22.000 406.200 C 22.000 406.822,21.773 407.200,21.400 407.200 C 21.070 407.200,20.821 407.335,20.847 407.500 C 21.000 408.469,20.722 409.200,20.200 409.200 C 19.827 409.200,19.600 409.578,19.600 410.200 C 19.600 410.750,19.420 411.200,19.200 411.200 C 18.980 411.200,18.800 411.656,18.800 412.213 C 18.800 412.769,18.530 413.329,18.200 413.455 C 17.870 413.582,17.600 413.947,17.600 414.266 C 17.600 414.586,17.440 414.748,17.244 414.627 C 17.048 414.506,16.770 415.035,16.626 415.804 C 16.482 416.572,16.192 417.200,15.982 417.200 C 15.772 417.200,15.600 417.566,15.600 418.013 C 15.600 418.459,15.330 418.929,15.000 419.055 C 14.670 419.182,14.400 419.476,14.400 419.708 C 14.400 420.422,13.066 423.200,12.723 423.200 C 12.545 423.200,12.400 423.631,12.400 424.157 C 12.400 424.684,12.130 425.218,11.800 425.345 C 11.470 425.471,11.200 425.941,11.200 426.387 C 11.200 426.843,10.936 427.200,10.600 427.200 C 10.261 427.200,10.000 427.558,10.000 428.024 C 10.000 428.484,9.819 428.736,9.590 428.594 C 9.365 428.455,9.206 428.489,9.237 428.670 C 9.399 429.598,9.143 430.400,8.687 430.400 C 8.405 430.400,8.135 430.895,8.086 431.500 C 8.038 432.105,7.729 432.800,7.399 433.044 C 7.070 433.288,6.800 433.783,6.800 434.144 C 6.800 434.505,6.620 434.800,6.400 434.800 C 6.180 434.800,6.000 435.231,6.000 435.757 C 6.000 436.284,5.730 436.818,5.400 436.945 C 5.070 437.071,4.800 437.546,4.800 438.000 C 4.800 438.454,4.531 438.928,4.202 439.054 C 3.874 439.181,3.705 439.446,3.828 439.645 C 3.950 439.843,3.769 440.114,3.425 440.246 C 3.081 440.378,2.800 440.832,2.800 441.255 C 2.800 441.679,2.541 442.124,2.225 442.246 C 1.909 442.367,1.743 442.707,1.856 443.002 C 1.969 443.297,1.665 443.935,1.181 444.419 C 0.520 445.080,0.249 445.937,0.095 447.850 L -0.110 450.400 1.574 450.400 C 2.537 450.400,3.514 450.657,3.857 451.000 C 4.301 451.444,5.390 451.600,8.052 451.600 C 10.029 451.600,11.551 451.756,11.433 451.947 C 11.176 452.362,14.073 452.800,17.079 452.800 C 18.272 452.800,19.149 452.960,19.028 453.155 C 18.907 453.350,19.032 453.502,19.304 453.492 C 23.056 453.357,26.400 453.667,26.400 454.151 C 26.400 454.578,27.318 454.717,30.489 454.772 C 33.028 454.816,34.685 455.014,34.859 455.295 C 35.018 455.553,36.654 455.820,38.669 455.917 C 40.611 456.011,42.260 456.248,42.333 456.444 C 42.407 456.640,44.077 456.800,46.046 456.800 C 48.701 456.800,49.679 456.941,49.835 457.346 C 49.986 457.741,51.006 457.913,53.512 457.969 C 55.692 458.017,57.090 458.222,57.276 458.523 C 57.457 458.815,58.931 459.053,61.085 459.137 C 63.018 459.212,64.771 459.437,64.980 459.637 C 65.189 459.837,66.854 460.000,68.680 460.000 C 70.750 460.000,72.000 460.159,72.000 460.424 C 72.000 460.657,72.168 460.744,72.372 460.617 C 72.577 460.491,72.858 460.570,72.996 460.793 C 73.138 461.023,74.905 461.200,77.047 461.200 C 79.182 461.200,80.750 461.357,80.626 461.558 C 80.287 462.107,81.116 462.276,84.600 462.368 C 86.360 462.415,87.860 462.621,87.933 462.826 C 88.007 463.032,89.685 463.200,91.662 463.200 C 94.324 463.200,95.413 463.356,95.857 463.800 C 96.282 464.224,97.317 464.400,99.396 464.400 C 102.424 464.400,103.735 464.658,103.408 465.188 C 103.304 465.355,104.776 465.526,106.677 465.568 C 108.579 465.610,110.453 465.814,110.841 466.022 C 111.230 466.230,112.922 466.400,114.602 466.400 C 116.784 466.400,117.829 466.571,118.257 467.000 C 118.706 467.448,119.810 467.600,122.629 467.600 C 125.714 467.600,126.400 467.709,126.400 468.200 C 126.400 468.691,127.089 468.800,130.200 468.800 C 132.467 468.800,134.000 468.961,134.000 469.200 C 134.000 469.436,135.410 469.600,137.429 469.600 C 139.943 469.600,141.017 469.760,141.457 470.200 C 141.895 470.637,142.961 470.800,145.395 470.800 C 147.602 470.800,148.787 470.960,148.890 471.271 C 148.990 471.569,150.368 471.805,152.624 471.910 C 154.591 472.002,156.371 472.240,156.580 472.439 C 156.789 472.637,158.544 472.800,160.480 472.800 C 163.342 472.800,164.000 472.912,164.000 473.400 C 164.000 473.730,164.135 473.979,164.300 473.953 C 165.654 473.739,171.600 474.077,171.426 474.358 C 170.914 475.186,175.053 475.400,191.600 475.400 C 207.720 475.400,211.103 475.214,210.574 474.358 C 210.450 474.157,212.018 474.000,214.153 474.000 C 216.295 474.000,218.062 473.823,218.204 473.593 C 218.342 473.370,218.623 473.291,218.828 473.417 C 219.032 473.544,219.200 473.457,219.200 473.224 C 219.200 472.959,220.450 472.800,222.520 472.800 C 224.346 472.800,226.011 472.637,226.220 472.437 C 226.429 472.237,228.182 472.012,230.115 471.937 C 232.269 471.853,233.743 471.615,233.924 471.323 C 234.110 471.022,235.508 470.817,237.688 470.769 C 240.194 470.713,241.214 470.541,241.365 470.146 C 241.521 469.741,242.499 469.600,245.154 469.600 C 247.123 469.600,248.793 469.440,248.867 469.244 C 248.940 469.048,250.609 468.810,252.576 468.715 C 254.828 468.607,256.211 468.368,256.310 468.071 C 256.415 467.754,257.698 467.600,260.233 467.600 C 263.315 467.600,264.000 467.491,264.000 467.000 C 264.000 466.464,267.635 466.138,271.896 466.292 C 272.168 466.302,272.293 466.150,272.172 465.955 C 272.051 465.760,272.928 465.600,274.121 465.600 C 277.127 465.600,280.024 465.162,279.767 464.747 C 279.649 464.556,281.161 464.400,283.127 464.400 C 285.817 464.400,286.825 464.251,287.200 463.800 C 287.569 463.355,288.555 463.200,291.016 463.200 C 292.840 463.200,294.393 463.039,294.467 462.843 C 294.540 462.647,296.299 462.411,298.375 462.319 C 300.805 462.211,302.206 461.982,302.308 461.676 C 302.414 461.358,303.589 461.200,305.846 461.200 C 308.481 461.200,309.276 461.068,309.455 460.600 C 309.636 460.128,310.453 460.000,313.269 460.000 C 315.240 460.000,317.164 459.833,317.544 459.630 C 317.925 459.426,319.797 459.211,321.705 459.151 C 323.947 459.081,325.240 458.873,325.359 458.562 C 325.478 458.252,326.836 458.032,329.187 457.941 C 331.393 457.856,332.944 457.615,333.119 457.332 C 333.282 457.067,334.878 456.766,336.804 456.638 C 338.672 456.514,341.640 456.316,343.400 456.197 C 347.353 455.931,348.502 455.689,348.193 455.188 C 348.044 454.948,349.406 454.800,351.776 454.800 C 354.908 454.800,355.600 454.691,355.600 454.200 C 355.600 453.709,356.285 453.600,359.367 453.600 C 361.438 453.600,363.193 453.431,363.267 453.226 C 363.340 453.020,364.930 452.814,366.800 452.769 C 368.888 452.719,370.504 452.478,370.989 452.144 C 371.515 451.781,373.014 451.600,375.489 451.600 C 378.244 451.600,379.174 451.471,379.100 451.100 C 379.033 450.766,379.663 450.559,381.000 450.476 C 382.100 450.408,383.154 450.200,383.342 450.014 C 383.790 449.571,383.238 446.329,382.765 446.622 C 382.564 446.746,382.400 446.586,382.400 446.266 C 382.400 445.947,382.130 445.582,381.800 445.455 C 381.470 445.329,381.200 444.769,381.200 444.213 C 381.200 443.656,381.020 443.200,380.800 443.200 C 380.580 443.200,380.400 442.750,380.400 442.200 C 380.400 441.578,380.173 441.200,379.800 441.200 C 379.278 441.200,379.000 440.469,379.153 439.500 C 379.179 439.335,378.930 439.200,378.600 439.200 C 378.227 439.200,378.000 438.822,378.000 438.200 C 378.000 437.650,377.820 437.200,377.600 437.200 C 377.380 437.200,377.200 436.880,377.200 436.489 C 377.200 436.098,376.660 435.187,376.000 434.464 C 375.340 433.742,374.800 432.817,374.800 432.409 C 374.800 432.001,374.612 431.604,374.382 431.527 C 374.152 431.451,373.934 430.986,373.897 430.494 C 373.860 430.002,373.679 429.600,373.494 429.600 C 373.309 429.600,372.970 429.060,372.740 428.400 C 372.510 427.741,372.160 427.301,371.961 427.424 C 371.762 427.547,371.600 427.283,371.600 426.838 C 371.600 426.393,371.150 425.222,370.600 424.237 C 370.050 423.252,369.600 422.155,369.600 421.799 C 369.600 421.443,369.408 421.271,369.173 421.417 C 368.938 421.562,368.647 421.303,368.526 420.840 C 368.406 420.378,368.148 420.000,367.953 420.000 C 367.759 420.000,367.600 419.653,367.600 419.229 C 367.600 418.804,367.330 418.187,367.000 417.857 C 366.670 417.527,366.400 416.884,366.400 416.429 C 366.400 415.959,366.140 415.600,365.800 415.600 C 365.427 415.600,365.200 415.222,365.200 414.600 C 365.200 414.050,365.020 413.600,364.800 413.600 C 364.580 413.600,364.400 413.323,364.400 412.984 C 364.400 412.359,362.850 409.911,362.300 409.667 C 362.135 409.593,362.000 409.188,362.000 408.767 C 362.000 408.345,361.820 408.000,361.600 408.000 C 361.380 408.000,361.200 407.634,361.200 407.187 C 361.200 406.741,360.930 406.271,360.600 406.145 C 360.258 406.013,360.000 405.417,360.000 404.757 C 360.000 403.995,359.795 403.600,359.400 403.600 C 359.027 403.600,358.800 403.222,358.800 402.600 C 358.800 402.050,358.620 401.600,358.400 401.600 C 358.180 401.600,358.000 401.305,358.000 400.944 C 358.000 400.583,357.722 400.085,357.382 399.836 C 357.042 399.588,356.734 398.988,356.698 398.503 C 356.661 398.018,356.399 397.532,356.116 397.423 C 355.832 397.314,355.600 396.879,355.600 396.455 C 355.600 396.032,355.319 395.578,354.975 395.446 C 354.631 395.314,354.450 395.043,354.572 394.845 C 354.695 394.646,354.526 394.381,354.198 394.254 C 353.869 394.128,353.600 393.569,353.600 393.013 C 353.600 392.379,353.375 392.000,353.000 392.000 C 352.634 392.000,352.400 391.627,352.400 391.043 C 352.400 390.516,352.119 389.978,351.775 389.846 C 351.431 389.714,351.269 389.412,351.415 389.176 C 351.561 388.940,351.392 388.534,351.041 388.273 C 350.689 388.013,350.362 387.305,350.314 386.700 C 350.265 386.095,349.995 385.600,349.713 385.600 C 349.257 385.600,349.001 384.798,349.163 383.870 C 349.194 383.689,349.050 383.646,348.842 383.774 C 348.634 383.902,348.253 383.367,347.995 382.584 C 347.736 381.800,347.182 380.945,346.762 380.684 C 346.343 380.422,346.000 379.801,346.000 379.304 C 346.000 378.807,345.855 378.400,345.677 378.400 C 345.334 378.400,344.000 375.622,344.000 374.908 C 344.000 374.676,343.730 374.382,343.400 374.255 C 343.070 374.129,342.800 373.659,342.800 373.213 C 342.800 372.766,342.628 372.400,342.418 372.400 C 342.208 372.400,341.918 371.772,341.774 371.004 C 341.630 370.235,341.352 369.706,341.156 369.827 C 340.960 369.948,340.800 369.761,340.800 369.411 C 340.800 369.061,340.530 368.671,340.200 368.545 C 339.870 368.418,339.600 367.961,339.600 367.529 C 339.600 367.096,339.338 366.481,339.017 366.160 C 338.696 365.839,338.536 365.312,338.660 364.988 C 338.801 364.621,338.644 364.400,338.243 364.400 C 337.824 364.400,337.600 364.052,337.600 363.400 C 337.600 362.778,337.373 362.400,337.000 362.400 C 336.627 362.400,336.400 362.022,336.400 361.400 C 336.400 360.850,336.220 360.400,336.000 360.400 C 335.780 360.400,335.600 360.123,335.600 359.784 C 335.600 359.445,335.208 358.637,334.728 357.989 C 334.249 357.340,333.968 356.699,334.104 356.563 C 334.240 356.427,333.940 355.930,333.438 355.458 C 332.935 354.986,332.401 354.098,332.250 353.484 C 332.100 352.870,331.802 352.475,331.588 352.607 C 331.370 352.742,331.200 352.313,331.200 351.624 C 331.200 350.803,331.003 350.400,330.600 350.400 C 330.270 350.400,329.994 350.085,329.987 349.700 C 329.980 349.315,329.716 348.658,329.400 348.241 C 329.084 347.824,328.909 347.348,329.011 347.183 C 329.112 347.018,328.926 346.781,328.598 346.654 C 328.269 346.528,328.000 345.959,328.000 345.389 C 328.000 344.819,327.832 344.456,327.628 344.583 C 327.423 344.709,327.142 344.630,327.004 344.407 C 326.590 343.737,321.381 343.900,320.800 344.600 C 320.431 345.045,319.445 345.200,316.984 345.200 C 315.160 345.200,313.607 345.361,313.533 345.557 C 313.460 345.753,311.701 345.989,309.625 346.081 C 307.195 346.189,305.794 346.418,305.692 346.724 C 305.586 347.042,304.411 347.200,302.154 347.200 C 299.519 347.200,298.724 347.332,298.545 347.800 C 298.364 348.272,297.547 348.400,294.731 348.400 C 292.760 348.400,290.829 348.570,290.440 348.778 C 290.052 348.987,288.087 349.190,286.075 349.231 C 284.064 349.271,282.503 349.442,282.606 349.610 C 282.935 350.142,281.627 350.400,278.596 350.400 C 276.517 350.400,275.482 350.576,275.057 351.000 C 274.619 351.438,273.552 351.600,271.109 351.600 C 269.267 351.600,267.589 351.768,267.380 351.974 C 267.171 352.180,265.560 352.386,263.800 352.432 C 260.316 352.524,259.487 352.693,259.826 353.242 C 259.950 353.443,258.382 353.600,256.247 353.600 C 254.105 353.600,252.338 353.777,252.196 354.007 C 252.058 354.230,251.777 354.309,251.572 354.183 C 251.368 354.056,251.200 354.131,251.200 354.348 C 251.200 354.565,249.625 354.836,247.700 354.950 C 240.845 355.355,236.742 355.847,236.463 356.298 C 236.293 356.573,234.803 356.785,232.712 356.831 C 230.206 356.887,229.186 357.059,229.035 357.454 C 228.878 357.862,227.870 358.000,225.046 358.000 C 222.967 358.000,221.207 358.165,221.133 358.368 C 221.060 358.570,219.200 358.824,217.000 358.933 C 212.302 359.166,212.692 359.101,213.000 359.600 C 213.199 359.923,207.418 360.287,205.900 360.047 C 205.735 360.021,205.600 360.270,205.600 360.600 C 205.600 361.088,204.942 361.200,202.080 361.200 C 200.144 361.200,198.372 361.388,198.142 361.618 C 197.590 362.170,185.198 362.158,184.645 361.605 C 184.422 361.382,182.476 361.200,180.320 361.200 C 177.102 361.200,176.400 361.093,176.400 360.600 C 176.400 360.109,175.708 360.000,172.576 360.000 C 170.428 360.000,168.850 359.843,168.974 359.642 C 169.341 359.049,168.103 358.800,164.791 358.800 C 163.062 358.800,161.536 358.620,161.400 358.400 C 161.264 358.180,159.558 358.000,157.610 358.000 C 155.131 358.000,154.017 357.850,153.900 357.500 C 153.788 357.162,152.533 356.954,150.039 356.859 C 147.647 356.768,146.278 356.549,146.159 356.238 C 146.040 355.927,144.747 355.719,142.505 355.649 C 140.597 355.589,138.725 355.374,138.344 355.170 C 137.964 354.967,136.040 354.800,134.069 354.800 C 131.253 354.800,130.436 354.672,130.255 354.200 C 130.076 353.732,129.281 353.600,126.646 353.600 C 124.408 353.600,123.214 353.441,123.110 353.129 C 123.010 352.831,121.632 352.595,119.376 352.490 C 117.409 352.398,115.629 352.160,115.420 351.961 C 115.211 351.763,113.568 351.600,111.769 351.600 C 109.349 351.600,108.368 351.444,108.000 351.000 C 107.625 350.549,106.617 350.400,103.927 350.400 C 101.925 350.400,100.450 350.242,100.574 350.042 C 100.910 349.498,100.127 349.354,96.200 349.239 C 94.220 349.181,92.540 348.969,92.467 348.767 C 92.393 348.565,90.633 348.400,88.554 348.400 C 85.730 348.400,84.722 348.262,84.565 347.854 C 84.414 347.459,83.394 347.287,80.888 347.231 C 78.797 347.185,77.307 346.973,77.137 346.698 C 76.858 346.247,72.755 345.755,65.900 345.350 C 63.975 345.236,62.400 344.965,62.400 344.748 C 62.400 344.531,62.232 344.456,62.028 344.583 C 61.823 344.709,61.542 344.630,61.404 344.407 C 60.718 343.296,55.577 343.947,55.140 345.200 " stroke="none" fill="#bc9c5c" fill-rule="evenodd"></path><path id="path1" d="M391.200 435.200 C 391.200 435.420,390.660 435.600,390.000 435.600 C 389.340 435.600,388.800 435.789,388.800 436.019 C 388.800 436.250,388.350 436.855,387.800 437.365 C 386.773 438.317,386.208 445.200,387.157 445.200 C 387.353 445.200,387.626 445.650,387.764 446.200 C 387.948 446.931,388.283 447.200,389.008 447.200 C 389.623 447.200,390.000 447.428,390.000 447.800 C 390.000 448.289,390.667 448.400,393.600 448.400 C 396.533 448.400,397.200 448.289,397.200 447.800 C 397.200 447.470,397.404 447.200,397.654 447.200 C 399.054 447.200,400.000 445.183,400.000 442.198 C 400.000 438.171,398.796 435.600,396.911 435.600 C 396.410 435.600,396.000 435.420,396.000 435.200 C 396.000 434.978,394.933 434.800,393.600 434.800 C 392.267 434.800,391.200 434.978,391.200 435.200 M394.500 437.882 C 394.005 437.978,393.195 437.978,392.700 437.882 C 392.205 437.787,392.610 437.709,393.600 437.709 C 394.590 437.709,394.995 437.787,394.500 437.882 M397.200 442.600 C 397.200 442.930,397.020 443.200,396.800 443.200 C 396.580 443.200,396.400 442.930,396.400 442.600 C 396.400 442.270,396.580 442.000,396.800 442.000 C 397.020 442.000,397.200 442.270,397.200 442.600 M394.000 445.200 C 394.000 445.860,393.820 446.400,393.600 446.400 C 393.380 446.400,393.200 445.860,393.200 445.200 C 393.200 444.540,393.380 444.000,393.600 444.000 C 393.820 444.000,394.000 444.540,394.000 445.200 " stroke="none" fill="#040404" fill-rule="evenodd"></path><path id="path2" d="M196.380 79.271 C 196.826 79.750,197.313 80.020,197.462 79.871 C 197.611 79.722,197.523 79.600,197.267 79.600 C 197.010 79.600,196.800 79.330,196.800 79.000 C 196.800 78.670,196.523 78.400,196.184 78.400 C 195.690 78.400,195.729 78.572,196.380 79.271 M256.000 141.915 C 256.000 142.084,256.360 142.530,256.800 142.907 C 257.240 143.284,257.600 143.454,257.600 143.285 C 257.600 143.116,257.240 142.670,256.800 142.293 C 256.360 141.916,256.000 141.746,256.000 141.915 M262.199 147.198 C 262.334 147.417,262.840 147.799,263.322 148.047 L 264.200 148.499 263.317 147.649 C 262.395 146.763,261.775 146.513,262.199 147.198 M257.891 234.830 C 258.227 235.261,258.419 237.781,258.500 242.830 L 258.619 250.200 258.710 242.749 C 258.791 236.063,258.728 235.242,258.100 234.749 C 257.482 234.265,257.458 234.274,257.891 234.830 " stroke="none" fill="#8ca030" fill-rule="evenodd"></path><path id="path3" d="M196.380 79.271 C 196.826 79.750,197.313 80.020,197.462 79.871 C 197.611 79.722,197.523 79.600,197.267 79.600 C 197.010 79.600,196.800 79.330,196.800 79.000 C 196.800 78.670,196.523 78.400,196.184 78.400 C 195.690 78.400,195.729 78.572,196.380 79.271 M256.000 141.915 C 256.000 142.084,256.360 142.530,256.800 142.907 C 257.240 143.284,257.600 143.454,257.600 143.285 C 257.600 143.116,257.240 142.670,256.800 142.293 C 256.360 141.916,256.000 141.746,256.000 141.915 M262.199 147.198 C 262.334 147.417,262.840 147.799,263.322 148.047 L 264.200 148.499 263.317 147.649 C 262.395 146.763,261.775 146.513,262.199 147.198 M257.891 234.830 C 258.227 235.261,258.419 237.781,258.500 242.830 L 258.619 250.200 258.710 242.749 C 258.791 236.063,258.728 235.242,258.100 234.749 C 257.482 234.265,257.458 234.274,257.891 234.830 " stroke="none" fill="#8ca030" fill-rule="evenodd"></path><path id="path4" d="M196.380 79.271 C 196.826 79.750,197.313 80.020,197.462 79.871 C 197.611 79.722,197.523 79.600,197.267 79.600 C 197.010 79.600,196.800 79.330,196.800 79.000 C 196.800 78.670,196.523 78.400,196.184 78.400 C 195.690 78.400,195.729 78.572,196.380 79.271 M256.000 141.915 C 256.000 142.084,256.360 142.530,256.800 142.907 C 257.240 143.284,257.600 143.454,257.600 143.285 C 257.600 143.116,257.240 142.670,256.800 142.293 C 256.360 141.916,256.000 141.746,256.000 141.915 M262.199 147.198 C 262.334 147.417,262.840 147.799,263.322 148.047 L 264.200 148.499 263.317 147.649 C 262.395 146.763,261.775 146.513,262.199 147.198 M257.891 234.830 C 258.227 235.261,258.419 237.781,258.500 242.830 L 258.619 250.200 258.710 242.749 C 258.791 236.063,258.728 235.242,258.100 234.749 C 257.482 234.265,257.458 234.274,257.891 234.830 " stroke="none" fill="#8ca030" fill-rule="evenodd"></path></g></svg>